<svg width="280" height="60" viewBox="0 0 280 60" fill="none" xmlns="http://www.w3.org/2000/svg">
<text x="65" y="38" font-family="Arial, sans-serif" font-size="20" font-weight="bold" fill="white">Maddy Group Ltd</text>
<circle cx="30" cy="30" r="30" fill="white"/>
<path d="M46.977 19.6088L30.4917 11.3661C30.1822 11.2113 29.8179 11.2113 29.5085 11.3661L13.0232 19.6088C12.6507 19.795 12.4155 20.1757 12.4155 20.592V27.2839C12.4155 37.1604 19.1924 46.4832 29.7687 48.75C40.857 46.9455 47.6156 36.8149 47.5849 27.284V20.592C47.5847 20.1757 47.3495 19.795 46.977 19.6088ZM30.0001 24.2029C29.3078 24.2029 28.7445 23.6395 28.7445 22.9471C28.8076 21.2835 31.193 21.284 31.2559 22.9471C31.2558 23.6396 30.6925 24.2029 30.0001 24.2029ZM45.386 27.2839C45.386 37.8282 37.819 43.0007 35.8095 44.2092V32.8226L37.8829 30.7492C40.1185 31.905 42.9084 30.1854 42.8746 27.6571C42.8746 25.7524 41.3249 24.2027 39.4202 24.2027C36.8922 24.1692 35.1721 26.9588 36.3282 29.1946L33.9328 31.59C33.7267 31.7961 33.6108 32.0757 33.6108 32.3672V45.3515C32.797 45.7117 31.9581 46.0173 31.0994 46.2653V26.2212C34.7552 24.9309 33.9243 19.5698 29.9999 19.4928C26.0751 19.5701 25.2454 24.9316 28.9007 26.2212V46.2655C28.042 46.0176 27.203 45.7118 26.3892 45.3517V32.3674C26.3892 32.0758 26.2733 31.7961 26.0672 31.5901L23.6718 29.1948C24.8276 26.9592 23.108 24.1692 20.5796 24.2031C18.675 24.2031 17.1253 25.7526 17.1253 27.6574C17.0918 30.1854 19.8814 31.9057 22.1172 30.7496L24.1905 32.8229V44.2096C22.1812 43.0009 14.6142 37.8284 14.6142 27.284V21.2715L30.0001 13.5785L45.386 21.2715V27.2839ZM38.1646 27.6572C38.1646 26.9649 38.7279 26.4016 39.4202 26.4016C41.0838 26.4647 41.0833 28.8501 39.4202 28.913C38.7279 28.913 38.1646 28.3496 38.1646 27.6572ZM21.8356 27.6572C21.8356 28.3496 21.2724 28.913 20.58 28.913C18.9164 28.8499 18.9168 26.4645 20.58 26.4016C21.2724 26.4016 21.8356 26.9649 21.8356 27.6572Z" fill="url(#paint0_linear_156_340)"/>
<defs>
<linearGradient id="paint0_linear_156_340" x1="12.7763" y1="29.7137" x2="47.2243" y2="29.7994" gradientUnits="userSpaceOnUse">
<stop stop-color="#4D51AB"/>
<stop offset="1" stop-color="#55CEE3"/>
</linearGradient>
</defs>
</svg>
